HIERARCHY
ROOT Pelvis
{
	OFFSET 0.000000 0.929658 0.000000
	CHANNELS 6 Xposition Yposition Zposition Zrotation Yrotation Xrotation 
	JOINT L_Hip
	{
		OFFSET 0.040712 -0.048808 -0.053045
		CHANNELS 3 Zrotation Yrotation Xrotation
		JOINT L_Knee
		{
			OFFSET 0.066543 -0.394981 -0.053371
			CHANNELS 3 Zrotation Yrotation Xrotation
			JOINT L_Ankle
			{
				OFFSET -0.262169 -0.300035 -0.134013
				CHANNELS 3 Zrotation Yrotation Xrotation
				End Site #name: L_Foot
				{
					OFFSET 0.059014 -0.122942 -0.020767
				}
			}
		}
	}
	JOINT R_Hip
	{
		OFFSET -0.046473 -0.059832 0.033071
		CHANNELS 3 Zrotation Yrotation Xrotation
		JOINT R_Knee
		{
			OFFSET 0.142733 -0.367036 0.088373
			CHANNELS 3 Zrotation Yrotation Xrotation
			JOINT R_Ankle
			{
				OFFSET 0.053864 -0.404497 -0.067471
				CHANNELS 3 Zrotation Yrotation Xrotation
				End Site #name: R_Foot
				{
					OFFSET 0.043303 -0.071212 0.113153
				}
			}
		}
	}
	JOINT Spine1
	{
		OFFSET -0.043780 0.162360 -0.017651
		CHANNELS 3 Zrotation Yrotation Xrotation
		JOINT Spine2
		{
			OFFSET 0.010252 0.123835 0.040969
			CHANNELS 3 Zrotation Yrotation Xrotation
			JOINT Spine3
			{
				OFFSET 0.009140 0.035634 0.009239
				CHANNELS 3 Zrotation Yrotation Xrotation
				JOINT Neck
				{
					OFFSET -0.009269 0.225718 0.016960
					CHANNELS 3 Zrotation Yrotation Xrotation
					End Site #name: Head
					{
						OFFSET 0.006883 0.118955 0.045189
					}
				}
				JOINT L_Collar
				{
					OFFSET 0.050490 0.111107 -0.040703
					CHANNELS 3 Zrotation Yrotation Xrotation
					JOINT L_Shoulder
					{
						OFFSET 0.097916 0.024589 -0.088634
						CHANNELS 3 Zrotation Yrotation Xrotation
						JOINT L_Elbow
						{
							OFFSET 0.059397 -0.210495 -0.115171
							CHANNELS 3 Zrotation Yrotation Xrotation
							End Site #name: L_Wrist
							{
								OFFSET 0.112406 -0.209570 0.115998
							}
						}
					}
				}
				JOINT R_Collar
				{
					OFFSET -0.075180 0.091328 0.054817
					CHANNELS 3 Zrotation Yrotation Xrotation
					JOINT R_Shoulder
					{
						OFFSET -0.122253 -0.000645 0.037335
						CHANNELS 3 Zrotation Yrotation Xrotation
						JOINT R_Elbow
						{
							OFFSET -0.145281 -0.158929 -0.110906
							CHANNELS 3 Zrotation Yrotation Xrotation
							End Site #name: R_Wrist
							{
								OFFSET 0.052970 -0.241965 0.044146
							}
						}
					}
				}
			}
		}
	}
}
MOTION
Frames: 17
Frame Time: 0.041667
0.000000 0.929658 0.000000 -0.000228 0.000513 0.000318 0.000000 0.000000 0.000000 0.005004 -0.002120 -0.000132 0.000000 0.000000 0.000000 0.000000 0.000000 0.000000 0.000000 0.000000 0.000000 0.000000 0.000000 0.000000 0.000000 0.000000 0.000000 0.008530 -0.000988 -0.004767 -0.011688 -0.000513 0.003610 0.013533 -0.005357 0.003727 0.016111 0.008287 0.012503 -0.010397 0.000814 -0.017270 0.000000 0.000000 0.000000 0.000000 0.000000 0.000000 0.011104 -0.004055 -0.004041 0.000000 0.000000 0.000000 
0.037932 0.907111 0.035295 0.731110 -1.202686 -0.182635 7.389212 -1.224336 -2.321258 -12.590110 -0.310326 7.816440 2.324055 1.269261 3.625943 -0.308530 0.174094 0.634436 -4.815983 1.598842 4.426053 3.078525 -0.614937 -9.335603 -1.525760 0.396785 1.574339 1.618371 -0.331738 -0.328243 -0.242471 -0.155081 -0.053780 0.637143 -0.149017 -1.456118 -0.597766 0.593875 -0.690998 -0.292133 0.888811 2.520097 0.513341 1.955367 3.207417 2.468846 0.157660 0.756226 3.109658 1.968828 -4.399884 -2.172639 -0.997238 -2.491338 
0.073971 0.882945 0.068574 1.444726 -3.782622 -0.364373 16.616225 -2.350529 -7.491684 -23.039116 -0.450357 16.209903 4.050457 1.777966 5.568860 -1.181613 0.283281 1.421560 -9.344941 3.733856 9.654829 6.236006 -1.268578 -19.469255 -3.485543 0.939830 4.253308 4.781410 -1.092694 -0.529858 -1.534815 -0.343978 -0.832915 1.652921 -0.411596 -2.941704 -0.925246 1.194227 -1.138641 -1.363004 2.729291 6.423780 0.981163 3.518033 5.852752 5.558477 0.718407 1.726039 8.109820 5.516124 -11.347528 -6.123189 -2.895380 -6.288933 
0.108355 0.876315 0.101730 2.150483 -6.865452 0.206432 22.440393 -2.528431 -13.867786 -23.896408 -2.769849 20.742228 3.299706 1.751703 5.138963 -3.723760 0.405225 3.083430 -10.644034 4.374082 10.888839 7.762290 -1.003155 -23.826876 -4.457439 1.223062 6.150868 7.390296 -1.543396 -1.234736 -3.406075 -0.426143 -1.296656 2.683075 -0.719962 -3.589827 -0.240326 1.737423 -0.648963 -2.735986 5.108864 10.802678 0.126266 2.951638 5.531471 7.387285 0.995577 2.310913 12.753352 8.918422 -17.325227 -5.418218 -4.382986 -12.216433 
0.142264 0.894488 0.137894 2.948537 -9.941548 1.332270 23.307362 -2.327323 -19.192030 -13.679717 -8.736376 19.863114 -1.139144 1.769729 3.184551 -8.931901 0.532685 5.729616 -8.790821 3.212672 7.958152 8.337472 1.644398 -22.264304 -3.661224 0.873494 6.943894 8.554453 -1.811900 -1.325867 -5.666806 -0.512374 -2.433552 2.899117 -0.830959 -3.162626 1.095328 2.954514 0.270684 -3.962981 7.852964 15.758933 -1.852578 0.414207 2.608159 7.764488 1.048344 2.432406 16.289077 10.818176 -20.828860 1.045500 -4.074389 -19.573295 
0.175809 0.929789 0.177797 3.699854 -12.221520 2.790013 19.173519 -2.474718 -20.607246 6.311207 -13.263136 10.025824 -6.794432 -0.803929 -3.585048 -14.854565 0.157834 7.210615 -6.101892 2.130018 5.778782 7.864755 5.654038 -14.291910 -1.697066 0.164053 5.879325 7.375586 -2.048803 0.308006 -7.147852 -0.882213 -4.436636 3.223966 -1.032661 -2.169643 2.851249 3.600251 1.707337 -5.001882 10.062223 19.138004 -3.563622 -2.878804 -1.476125 7.294789 0.482049 2.255001 18.172213 10.478343 -21.294781 9.074115 -1.911818 -24.875485 
0.208363 0.961823 0.221170 3.636646 -13.947776 3.758448 14.531837 -2.656197 -19.357514 25.824872 -11.488730 -2.191469 -16.289110 -4.864302 -11.814437 -18.203280 -0.828288 6.607185 -4.346800 2.004550 7.283184 6.124613 8.229414 -2.791421 1.047725 -0.849515 5.317488 6.045498 -2.027260 1.373601 -7.921201 -1.415073 -6.052465 3.354059 -1.211960 -0.708252 4.131689 3.053101 2.985157 -6.004922 11.758715 21.082618 -5.133737 -6.002921 -4.946772 6.341837 -0.375966 1.921043 17.995903 9.894524 -20.666665 14.687123 0.315551 -26.012417 
0.238996 0.977631 0.266304 3.182387 -15.582674 4.232334 11.324208 -2.583177 -16.357543 38.287139 -5.195682 -11.359098 -25.959918 -9.506478 -18.413214 -19.340455 -2.439398 4.291586 -4.379304 3.161973 13.661087 2.543263 6.977500 6.207685 3.616336 -1.838813 5.322260 5.593282 -1.668813 0.636422 -8.919512 -2.269082 -6.464267 3.858530 -1.549818 0.833073 4.530550 0.541466 3.931227 -6.668756 12.730651 21.946346 -5.577095 -8.224197 -7.883189 5.234101 -3.031579 1.488526 16.808867 8.628481 -18.941162 17.392832 1.673880 -22.881703 
0.267978 0.967890 0.311924 2.666538 -17.621486 4.145830 10.731911 -2.405981 -13.740502 40.470107 -2.987510 -13.368655 -31.285057 -12.224011 -21.369691 -18.713851 -4.338459 0.859854 -6.061524 5.861068 24.352285 -1.154374 1.976310 6.423536 5.222004 -2.422741 5.057318 6.038590 -1.961864 1.174642 -10.392154 -3.404044 -7.139210 4.595139 -1.914981 1.573346 3.501170 -2.813059 3.845380 -5.790927 12.368757 22.825000 -4.852347 -9.437861 -10.471417 4.371234 -6.558700 1.139282 14.721179 7.353895 -16.730355 19.163025 2.555482 -18.914574 
0.296000 0.940282 0.356663 2.628861 -19.675572 3.448299 9.763621 -2.317666 -12.755028 37.009426 -8.233832 -9.084715 -21.472417 -15.606010 -27.232427 -17.544749 -6.149169 -2.747147 -8.409452 9.615922 35.676708 -3.235438 -3.013455 3.213837 5.221533 -2.490893 5.551221 7.701183 -2.329941 0.882416 -12.479163 -4.536129 -6.776075 6.617612 -2.736533 1.692704 1.897204 -7.625576 3.716401 -4.356289 10.582424 21.617488 -2.921808 -9.604500 -12.894319 4.178323 -11.625246 0.941629 11.817764 6.879502 -14.791427 17.818047 2.324478 -14.845771 
0.319087 0.904639 0.398679 3.097109 -21.499903 2.246595 8.706836 -2.228487 -11.978440 30.997701 -13.161188 -3.472211 -4.980470 -16.273084 -32.877210 -16.792460 -8.741145 -7.527755 -8.246452 12.539508 46.815912 -3.830250 -6.181349 0.036880 4.464486 -2.375963 6.917543 9.259721 -2.921116 1.322605 -14.967945 -5.759890 -6.839138 9.150837 -3.633479 0.895078 -0.502000 -14.410502 3.670030 -1.569119 6.847015 18.018157 0.068271 -7.626529 -13.346967 4.976443 -16.823666 0.914780 9.170611 5.766313 -12.215399 12.604165 1.017732 -11.810669 
0.332138 0.892089 0.441046 2.965637 -22.899245 1.801020 7.103014 -1.834701 -8.550868 28.942922 -13.802221 -2.080896 1.108809 -15.988026 -34.681116 -15.398591 -11.087264 -12.386082 -2.923437 10.256292 52.259164 -4.970017 -11.016236 -3.548689 5.769572 -2.985067 7.485061 10.760117 -3.616563 2.040821 -18.308546 -7.113695 -8.064966 10.754004 -4.422780 1.821444 -1.475743 -20.071864 4.800185 0.914402 3.461063 13.592046 2.416737 -6.712085 -14.767516 4.204244 -21.399539 0.640789 5.673298 3.372538 -7.604911 9.422649 0.338321 -10.113126 
0.332675 0.907159 0.486358 2.407937 -23.696947 2.290992 5.070013 -1.145281 -3.810910 31.832109 -12.319189 -4.396646 -3.512614 -16.681323 -34.231170 -15.032222 -12.241064 -14.586878 6.277674 3.105902 47.502137 -7.707437 -17.211282 -4.764340 8.908828 -4.117966 6.597437 12.157679 -3.766915 1.349588 -21.855508 -8.166927 -8.269239 11.573753 -5.006165 3.231505 -1.568350 -23.625805 6.097560 1.346998 2.282224 10.728963 4.792021 -7.812419 -19.814770 0.945666 -25.789870 0.226466 1.607426 1.255284 -2.564487 12.162151 1.199754 -9.029289 
0.323103 0.937991 0.534051 2.317391 -24.230299 3.044844 3.169846 -0.406653 0.141679 36.153275 -10.312954 -7.498000 -15.630973 -16.811232 -30.452096 -16.188965 -11.923844 -13.210713 17.010926 -3.487223 31.744496 -13.771934 -23.563052 -0.147815 12.425498 -5.078225 4.402603 12.709196 -3.292915 -0.290085 -25.214865 -8.695134 -7.018888 12.335122 -5.542467 4.381857 -1.530499 -26.070679 7.145394 0.001207 2.933329 9.883850 6.857746 -10.116839 -26.665258 -3.589858 -30.086167 0.033618 -1.872830 -0.513140 2.028695 17.451039 2.624322 -8.079475 
0.307289 0.967115 0.582773 3.296072 -24.600288 3.316404 1.889599 -0.148304 0.702448 37.338708 -11.291801 -7.403258 -29.885684 -13.389657 -22.924512 -17.945325 -10.092343 -9.031315 25.790314 -5.284699 10.347952 -20.786719 -28.971735 5.895707 14.955926 -5.445613 1.802759 12.696452 -3.168112 -0.604848 -28.230982 -9.339973 -6.750289 12.589649 -5.889452 5.616260 -1.267156 -27.938508 8.180746 -1.773897 4.124008 9.860681 7.046609 -12.690422 -31.041850 -7.386752 -32.749977 0.101273 -3.836476 -2.721311 6.105816 20.983131 3.516945 -7.491113 
0.289408 0.978092 0.631271 5.238174 -25.181839 2.750438 0.898999 -0.404342 -1.769453 35.226331 -18.109728 -2.418123 -38.755835 -8.479452 -16.807829 -19.407974 -7.101359 -3.338266 29.722398 -4.077635 -6.136818 -28.281580 -35.159436 11.062018 15.508360 -5.105381 -0.475277 13.635962 -3.459628 -0.514567 -30.727749 -9.791417 -6.638428 11.586567 -5.615105 6.567775 -1.465822 -28.855386 8.433062 -3.304563 5.389118 10.484042 5.938612 -15.745478 -33.871094 -9.165801 -33.594885 0.165404 -4.417566 -5.061864 9.168369 23.651834 4.159620 -8.703805 
0.272787 0.962810 0.677678 7.144968 -26.218096 1.736683 0.880197 -1.054785 -5.869272 28.528838 -28.208448 7.554825 -38.086615 -7.325261 -15.621551 -20.916688 -5.350386 0.210299 31.491352 -4.031668 -7.775601 -30.057425 -39.451501 10.004561 15.572308 -4.811954 -1.814189 14.693004 -3.645680 -0.772361 -32.628615 -9.593050 -6.036987 10.239509 -4.994078 6.523324 -1.689286 -28.836154 8.240914 -3.739945 6.338317 12.236891 3.993312 -16.971807 -32.688104 -9.259318 -34.399063 0.249269 -3.500985 -5.984183 9.327668 25.217033 4.575785 -10.413707 
